Simulation
nRows=40
nColumns=15
endheader
time  TH_x TH_y TH_z SC_y  SC_z  SC_x  AC_y  AC_z  AC_x  GH_y  GH_z  GH_yy  EL_x  PS_y
8.043  0.000000  0.000000  0.000000  -19.468030039105066  2.4119971277550607  -6.315116593258818  53.04397346845502  9.898071368351362  3.209790943686861  19.467744765401854  9.915325839785643  37.91362482772489  17.186835632455065  120.000000
8.09662  0.000000  0.000000  0.000000  -18.98114700411459  2.2453243438452337  -7.058975644865424  52.74846353526741  9.591314701229603  3.3801626526192345  19.93371683291916  11.291443652930171  37.00945564690428  16.582237596465934  120.000000
8.15024  0.000000  0.000000  0.000000  -18.482615825997957  2.01839813270804  -7.891591212578814  52.57908060821147  9.350887216744876  3.651051743319743  20.65628189665675  12.991015336966484  35.59308578076116  15.835163576649133  120.000000
8.20386  0.000000  0.000000  0.000000  -18.02423823175146  1.7470541433848632  -8.777560923111887  52.576567582923325  9.213352447473286  4.035716578132536  21.494063124850083  15.070008338045755  33.76632767942928  15.0022291841093  120.000000
8.257480000000001  0.000000  0.000000  0.000000  -17.67350599069144  1.4622711186924666  -9.668187033613796  52.765455554980285  9.226533681313734  4.54344889768814  22.3204795707052  17.579716277989082  31.627343652202374  14.157076241643098  120.000000
8.3111  0.000000  0.000000  0.000000  -17.497220443659668  1.2064973508481016  -10.517882258099199  53.15908310026075  9.435590853217398  5.172493191448144  23.04679669515044  20.541837727898642  29.2668868675351  13.370889632563564  120.000000
8.36472  0.000000  0.000000  0.000000  -17.537037741961438  1.0213648125283474  -11.287966497709272  53.76052526696366  9.869817360805282  5.902744216246743  23.62780351694483  23.92462885075755  26.765996609619094  12.691656451529402  120.000000
8.41834  0.000000  0.000000  0.000000  -17.78136239964095  0.93672611449341  -11.93107372833489  54.56092280058949  10.540323436608352  6.702440564101041  24.072421512256327  27.634667907402818  24.17898931390064  12.134787200553033  120.000000
8.47196  0.000000  0.000000  0.000000  -18.159639584111254  0.9581007530950227  -12.384748002927553  55.52597843643746  11.44375662663664  7.545482173112998  24.415534445436425  31.521161223902002  21.545139055753932  11.691129018488036  120.000000
8.52558  0.000000  0.000000  0.000000  -18.565732497929798  1.076929866920482  -12.585697357029291  56.59898381802688  12.565026943782819  8.402022646234519  24.683329028115615  35.40226458410376  18.904294975190705  11.340625053917302  120.000000
8.5792  0.000000  0.000000  0.000000  -18.90275587391567  1.301365166340197  -12.484458288493414  57.7282900881631  13.872929306634196  9.216883396350298  24.892874538813818  39.1180802682382  16.28295346903396  11.061114013119479  120.000000
8.63282  0.000000  0.000000  0.000000  -19.126425585854342  1.6410139910434418  -12.042841373857579  58.85901922215597  15.306093402461796  9.936380730219025  25.047082416645026  42.559486860233825  13.702556752819863  10.834911050210188  120.000000
8.686440000000001  0.000000  0.000000  0.000000  -19.250909220546394  2.08856081794707  -11.231368770916447  59.92710888198501  16.76620724901176  10.541834373146028  25.142263979211215  45.669428414725864  11.185121622017732  10.650923358745496  120.000000
8.74006  0.000000  0.000000  0.000000  -19.326881272810216  2.628732616837054  -10.035664715626933  60.87862881850254  18.134962252893093  11.043310427964363  25.178287247528104  48.43707367133985  8.754854894091038  10.503175439847915  120.000000
8.79368  0.000000  0.000000  0.000000  -19.41436147386957  3.243619796251063  -8.462458168845595  61.67869059347768  19.29864135492548  11.467526359192176  25.15630636520482  50.87709771241232  6.441472589569237  10.389416219365458  120.000000
8.8473  0.000000  0.000000  0.000000  -19.56369201780213  3.913661959708809  -6.546694008651194  62.312955169204585  20.168951259516106  11.847426836595595  25.076854169609202  53.01197449103511  4.2754388223990105  10.309644888562378  120.000000
8.90092  0.000000  0.000000  0.000000  -19.803684916454802  4.617234584040765  -4.353156966273531  62.785596487075146  20.69776676768832  12.211300644977127  24.937193657979158  54.862029940360515  2.2821363678141737  10.265136033184307  120.000000
8.95454  0.000000  0.000000  0.000000  -20.13980992654567  5.33342700520864  -1.9702230818974862  63.11682216816633  20.881565410544884  12.573989268227852  24.73300050596363  56.44647343865696  0.4765278419474117  10.256062154542649  120.000000
9.00816  0.000000  0.000000  0.000000  -20.559678468367295  6.040796015550433  0.503296952123486  63.33556108695784  20.75488459013148  12.936328569406568  24.45988690820745  57.78841661296221  -1.13295681216679  10.278511425744844  120.000000
9.06178  0.000000  0.000000  0.000000  -21.03916913466017  6.71889020626066  2.9726704034486833  63.47321044913642  20.37825460865044  13.286522778746848  24.119024369581016  58.9196741909211  -2.5376920440134594  10.32194762993759  120.000000
9.115400000000001  0.000000  0.000000  0.000000  -21.549262093725744  7.347404140336226  5.35628621235619  63.55832418439442  19.82215817914293  13.606720615008228  23.719925952562853  59.88288585945326  -3.724488978694999  10.370257545392406  120.000000
9.16902  0.000000  0.000000  0.000000  -22.060077411563903  7.908486253960305  7.586559555531568  63.613716331552574  19.153487778469124  13.876109687178161  23.279281152106456  60.72629838094487  -4.6780312790042435  10.405530036009072  120.000000
9.22264  0.000000  0.000000  0.000000  -22.542610620221335  8.388974332556426  9.602826473061171  63.65841283306322  18.42603906048539  14.073903761078604  22.818495507973143  61.497001010160986  -5.390151459141364  10.414518334350333  120.000000
9.27626  0.000000  0.000000  0.000000  -22.96602483351998  8.782320816660677  11.349174136443368  63.71274349236178  17.673129845056067  14.179191389713685  22.36181587413913  62.23250558538849  -5.869052274104804  10.394445998316012  120.000000
9.32988  0.000000  0.000000  0.000000  -23.29734165843698  9.089632110068312  12.776993164926987  63.8033747664386  16.90321188402989  14.173179117270706  21.93463030460116  62.958091144981324  -6.1413263187645155  10.354109363656946  120.000000
9.3835  0.000000  0.000000  0.000000  -23.505951460028694  9.317510344577643  13.844664000592227  63.96030370443256  16.10537078207754  14.043726021337898  21.55936049930142  63.68602105152999  -6.239428685515188  10.308555836674492  120.000000
9.43712  0.000000  0.000000  0.000000  -23.570497109396037  9.47536050263885  14.515755527415337  64.21222739461429  15.25620801977344  13.790868280257296  21.254794046967874  64.42026035240838  -6.185399958961636  10.270767104099466  120.000000
9.49074  0.000000  0.000000  0.000000  -23.483606305030754  9.569109822085084  14.75998887153113  64.5790306600918  14.326413344007417  13.43182734755733  21.03574875316698  65.15800411793467  -5.973322802396376  10.244170650222491  120.000000
9.544360000000001  0.000000  0.000000  0.000000  -23.25541028337227  9.597037296598662  14.553682833520936  65.06444598206598  13.283588234594518  13.001435076268807  20.910655205854724  65.88751449063258  -5.559751799396069  10.219257246024274  120.000000
9.59798  0.000000  0.000000  0.000000  -22.9083621636984  9.542320071245692  13.884350146713155  65.64977235537764  12.09442678432967  12.550976957703798  20.880297633000634  66.57875573749075  -4.865947271521604  10.17849098831091  120.000000
9.6516  0.000000  0.000000  0.000000  -22.470030182906378  9.371800802744291  12.759260211971933  66.29055837779893  10.72862952497708  12.142220881813431  20.93063932474308  67.17278167021541  -3.7914764460258854  10.106327100515632  120.000000
9.70522  0.000000  0.000000  0.000000  -21.967653076024526  9.038427807134408  11.220771106126156  66.91981256698242  9.164805651937078  11.832870767313869  21.022604994186484  67.5735191457186  -2.2345732377906407  10.001032733964637  120.000000
9.75884  0.000000  0.000000  0.000000  -21.420358479266792  8.494989183514381  9.364509361327316  67.45804861776314  7.388924720437722  11.657409820922235  21.082135007793887  67.64536962329385  -0.11438102392335607  9.88197927510447  120.000000
9.81246  0.000000  0.000000  0.000000  -20.840586023290072  7.708111319638586  7.345993508200045  67.82464888384585  5.392992413551356  11.610566626358118  20.996036238218657  67.22879155816689  2.609899974190954  9.785534044805273  120.000000
9.86608  0.000000  0.000000  0.000000  -20.234403309164012  6.681463638925077  5.360283212417233  67.9501413257907  3.191307993391944  11.640061356184333  20.61356196321412  66.17278427094269  5.934524714396026  9.757070529319236  120.000000
9.9197  0.000000  0.000000  0.000000  -19.604955811328356  5.46351146295439  3.6116341875340874  67.79503234853745  0.8335850449780358  11.65495448524542  19.768136664544862  64.38577273403506  9.816710977993225  9.83891666620679  120.000000
9.973320000000001  0.000000  0.000000  0.000000  -18.952170984960613  4.15228584840146  2.2858488984671648  67.36468547791993  -1.5931516143242015  11.542425811473127  18.314994422605327  61.87029513358339  14.194730209769261  10.07046997896902  120.000000
10.02694  0.000000  0.000000  0.000000  -18.285253606292564  2.870684228550418  1.515832093943106  66.71749167700092  -3.9827108290185174  11.206161451932058  16.18076845061969  58.74288195701037  18.999135462233696  10.482648119718736  120.000000
10.08056  0.000000  0.000000  0.000000  -17.635775604583472  1.730300938001707  1.354156468819033  65.94081532738606  -6.233973638651834  10.603405913582707  13.404192610547243  55.19955465080983  24.149092954162047  11.101581249528131  120.000000
10.13418  0.000000  0.000000  0.000000  -17.058880509005387  0.8011836805733945  1.7543970264415945  65.1178260647122  -8.280661318336005  9.742576159319047  10.124627071347312  51.451529081178016  29.543932415355755  11.933986923268797  120.000000
